<svg height="200px" width="200px" version="1.1" id="Layer_1" xmlns="http://www.w3.org/2000/svg" xmlns:xlink="http://www.w3.org/1999/xlink" viewBox="0 0 512.004 512.004" xml:space="preserve" fill="#000000"><g id="SVGRepo_bgCarrier" stroke-width="0"></g><g id="SVGRepo_tracerCarrier" stroke-linecap="round" stroke-linejoin="round"></g><g id="SVGRepo_iconCarrier"> <g> <g> <path style="fill:#F29C1F;" d="M251.665,76.924c-4.799,0-8.678-3.888-8.678-8.678V16.178c0-4.79,3.879-8.678,8.678-8.678 c4.799,0,8.678,3.888,8.678,8.678v52.068C260.343,73.036,256.464,76.924,251.665,76.924"></path> <path style="fill:#F29C1F;" d="M362.911,122.674c-2.222,0-4.443-0.85-6.135-2.543c-3.393-3.393-3.393-8.886,0-12.271l24.55-24.55 c3.393-3.384,8.886-3.384,12.271,0c3.393,3.393,3.393,8.886,0,12.271l-24.55,24.55 C367.354,121.823,365.132,122.674,362.911,122.674"></path> <path style="fill:#F29C1F;" d="M412.005,73.585c-2.222,0-4.443-0.85-6.135-2.543c-3.393-3.393-3.393-8.878,0-12.271l6.135-6.135 c3.393-3.393,8.878-3.393,12.271,0c3.393,3.393,3.393,8.878,0,12.271l-6.135,6.135C416.448,72.735,414.226,73.585,412.005,73.585"></path> <path style="fill:#F29C1F;" d="M142.013,122.674c-2.222,0-4.443-0.85-6.135-2.543l-24.55-24.55c-3.393-3.384-3.393-8.878,0-12.271 c3.384-3.384,8.878-3.384,12.271,0l24.55,24.55c3.393,3.384,3.393,8.878,0,12.271 C146.456,121.823,144.235,122.674,142.013,122.674"></path> <path style="fill:#F29C1F;" d="M92.919,73.585c-2.222,0-4.443-0.85-6.135-2.543l-6.135-6.135c-3.393-3.393-3.393-8.878,0-12.271 c3.393-3.393,8.878-3.393,12.271,0l6.135,6.135c3.393,3.393,3.393,8.878,0,12.271C97.362,72.735,95.141,73.585,92.919,73.585"></path> </g>  <path style="fill:#F0C419;" d="M399.191,192.098l8.99,16.488c-4.964-81.799-73.468-146.658-156.516-146.658 c-86.268,0-155.405,69.936-155.405,156.203h1.172l15.386-26.034l42.149,77.277l88.021-146.701l101.654,169.429L399.191,192.098z"></path>  <g> <path style="fill:#ECF0F1;" d="M109.074,290.613l3.749,5.623l4.86-7.298c8.097-12.149,20.011-21.244,33.853-25.86l-38.721-70.977 l-42.14,71.316l1.119,0.312C87.058,267.903,100.301,277.449,109.074,290.613"></path> <path style="fill:#ECF0F1;" d="M391.981,276.736l7.211,10.821l7.211-10.813c6.569-9.867,16.254-17.26,27.5-21.009L399.193,192.1 l-34.712,63.636h0.009C375.727,259.485,385.403,266.878,391.981,276.736"></path> <path style="fill:#ECF0F1;" d="M276.976,351.557l9.398,14.102l9.407-14.102c5.207-7.819,12.375-14.145,20.784-18.345 l-30.191-54.333l-30.182,54.333C264.602,337.412,271.761,343.738,276.976,351.557"></path> <path style="fill:#ECF0F1;" d="M305.292,199.344c6.274,6.248,14.926,10.11,24.472,10.11c9.546,0,18.172-3.853,24.446-10.084 l-24.446-41.984L305.292,199.344z"></path> <path style="fill:#ECF0F1;" d="M242.987,122.674l-48.675,81.122h0.009c14.64,3.662,27.579,12.245,36.63,24.324l12.036,16.046 l12.036-16.046c9.051-12.071,21.99-20.662,36.638-24.324L242.987,122.674z"></path> </g> <g> <path style="fill:#603B22;" d="M436.837,256.097c-1.345,0.269-2.708,0.286-4.035,0.113c-10.761,3.862-20.046,11.004-26.398,20.532 l-7.211,10.813l-7.211-10.821c-6.578-9.858-16.254-17.243-27.492-20.992l-0.009-0.009l-45.065,82.614l166.556,1.276 L436.837,256.097z"></path> <path style="fill:#603B22;" d="M291.604,203.701l0.052,0.095c-14.64,3.662-27.579,12.253-36.63,24.324l-12.036,16.046 l-12.036-16.054c-9.051-12.071-21.99-20.654-36.63-24.316h-0.009l0.087-0.148l-39.433,65.727l61.987,113.638h11.568 l57.856-104.136l33.037,59.47l25.227-46.245L291.604,203.701z"></path> </g> <g> <path style="fill:#805333;" d="M354.212,199.37c-6.274,6.231-14.909,10.084-24.446,10.084c-9.554,0-18.198-3.862-24.472-10.11 l-8.036,13.781l0.017,0.026l47.364,78.952l30.746-56.363L354.212,199.37z"></path> <path style="fill:#805333;" d="M151.535,263.079c-13.841,4.617-25.756,13.711-33.853,25.86l-4.86,7.289l-3.749-5.615 c-8.773-13.164-22.016-22.71-37.281-26.884l-1.119-0.312L0,383.009h216.949L151.535,263.079z"></path> </g> </g> </g></svg>